<svg width="24" height="24" viewBox="0 0 24 24" fill="none" xmlns="http://www.w3.org/2000/svg">
<path fill-rule="evenodd" clip-rule="evenodd" d="M10 3C10 2.44772 9.55228 2 9 2C8.44772 2 8 2.44772 8 3V4H7C4.79086 4 3 5.79086 3 8V16C3 18.2091 4.79086 20 7 20H16C18.2091 20 20 18.2091 20 16V8C20 5.79086 18.2091 4 16 4H15V3C15 2.44772 14.5523 2 14 2C13.4477 2 13 2.44772 13 3V4H10V3ZM5 16V15H8V18H7C5.89543 18 5 17.1046 5 16ZM10 18H13V15H10V18ZM16 18H15V15H18V16C18 17.1046 17.1046 18 16 18ZM18 13H15V9H18V13ZM10 9H13V13H10V9ZM8 9H5V13H8V9Z" fill="#2018B0"/>
</svg>
