<svg width="365" height="213" viewBox="0 0 365 213" fill="none" xmlns="http://www.w3.org/2000/svg">
<path fill-rule="evenodd" clip-rule="evenodd" d="M31.0001 65.3901L25.921 94.316C25.7458 95.7185 24.3447 96.9457 22.7684 96.9457H2.27684C1.05085 96.9457 0 96.2444 0 95.0173V94.6667L14.887 10.1679C16.113 4.0321 18.2147 2.62963 23.8193 1.75309C30.4746 0.701234 42.2091 0 51.3165 0C69.0058 0 86.8703 7.36296 86.8703 25.4198C86.8703 52.5926 68.1301 65.7407 41.8589 65.7407C39.0566 65.7407 34.5029 65.5654 31.0001 65.3901ZM42.8468 22.0086C40.8903 22.0498 39.037 22.0889 38.7063 22.0889L35.0283 43.8272C35.5538 44.0025 43.26 44.0025 43.9606 44.0025C54.1188 44.0025 60.2487 38.9185 60.2487 29.1012C60.2487 23.4914 55.3448 21.9136 47.8137 21.9136C47.3517 21.9136 45.0375 21.9624 42.851 22.0085L42.8492 22.0085L42.848 22.0085L42.8468 22.0086Z" fill="#03093D"/>
<path d="M16.113 182.496L11.2091 158.479L0.350268 114.126C0.350268 113.921 0.290169 113.775 0.240381 113.655C0.205181 113.57 0.175126 113.497 0.175126 113.425C0.175126 112.373 1.05083 111.321 2.27683 111.321H25.0452C26.2712 111.321 26.9718 112.548 27.1469 113.775L33.452 147.96C33.8023 149.012 34.1526 149.188 34.5029 149.188C34.8532 149.188 35.5537 149.012 36.0792 147.96L54.469 113.951C55.1696 112.723 56.2205 111.496 57.4464 111.496H81.2657C82.3166 111.496 82.6668 112.022 82.6668 112.723C82.6668 113.074 82.4917 113.6 82.3166 114.126L55.5199 158.479L41.6837 185.126L38.356 204.41C38.0057 205.812 36.6046 207.039 35.2035 207.039H14.1865C12.9605 207.039 12.2599 206.163 12.2599 204.936V204.41L16.113 182.496Z" fill="#03093D"/>
<path fill-rule="evenodd" clip-rule="evenodd" d="M238.543 0C229.436 0 217.701 0.701234 211.046 1.75309C205.441 2.62963 203.339 4.0321 202.113 10.1679L190.379 76.2592C190.204 77.6617 191.08 78.7136 192.481 78.7136H213.673C215.074 78.7136 216.3 77.6617 216.475 76.2592L218.402 65.2148C221.729 65.3901 226.108 65.5654 228.735 65.5654C255.006 65.5654 273.746 52.4173 273.746 25.2444C274.097 7.36296 256.407 0 238.543 0ZM231.187 44.0025C230.486 44.0025 222.78 44.0025 222.255 43.8272L226.108 21.9136C226.439 21.9136 228.292 21.8745 230.248 21.8333C232.436 21.7871 234.753 21.7383 235.215 21.7383C242.746 21.7383 247.475 23.316 247.475 28.9259C247.475 38.9185 241.345 44.0025 231.187 44.0025Z" fill="#03093D"/>
<path d="M237.142 111.321H262.537C263.588 111.321 264.114 111.672 264.114 112.022C264.114 112.548 263.938 113.074 263.413 113.775L227.159 158.654L246.95 204.059C246.95 204.147 246.994 204.322 247.037 204.498C247.081 204.673 247.125 204.848 247.125 204.936C247.125 205.988 246.249 206.689 245.023 206.689H219.803C218.226 206.689 217.876 205.812 217.526 204.585L201.238 162.511L194.057 204.235C193.707 205.637 192.306 206.864 190.904 206.864H169.187C168.486 206.864 167.786 206.163 167.786 205.462V204.41L187.051 95.8938C187.226 95.0173 187.927 94.4914 188.803 94.4914H210.695C212.097 94.4914 213.147 95.8938 212.972 97.2963L202.814 153.921L233.989 113.425C234.865 112.198 235.741 111.321 237.142 111.321Z" fill="#03093D"/>
<path fill-rule="evenodd" clip-rule="evenodd" d="M148.87 0C128.204 0 110.69 8.59012 103.334 35.9383L78.1132 175.133L78.0726 175.618C77.912 177.535 77.7629 179.315 77.7629 181.094C77.7629 202.832 92.6499 213 110.865 213C133.633 213 150.272 203.007 156.927 175.133L181.972 35.9383C182.017 35.5824 182.072 35.1815 182.131 34.7612C182.303 33.5247 182.498 32.1207 182.498 31.2049C182.322 8.94074 166.735 0 148.87 0ZM130.305 175.133C127.503 185.652 122.949 190.035 114.893 190.035C107.887 190.035 104.384 186.704 104.384 178.64C104.384 178.134 104.425 177.588 104.467 177.021C104.512 176.408 104.56 175.771 104.56 175.133L129.955 35.9383C132.057 25.9457 137.311 22.4395 144.667 22.9654C152.548 23.4914 156.051 28.4 155.176 34.3605L130.305 175.133Z" fill="#03093D"/>
<path fill-rule="evenodd" clip-rule="evenodd" d="M286.006 35.9383C293.362 8.59012 310.876 0 331.543 0C349.408 0 364.995 8.94074 364.995 31.2049C364.995 32.1208 364.8 33.5248 364.628 34.7613C364.57 35.1816 364.514 35.5825 364.47 35.9383L339.425 175.133C332.769 203.007 316.131 213 293.362 213C275.148 213 260.26 202.832 260.26 181.094C260.26 179.315 260.41 177.536 260.57 175.619C260.584 175.458 260.597 175.296 260.611 175.133L286.006 35.9383ZM297.391 190.035C305.447 190.035 310.001 185.652 312.803 175.133L337.673 34.3605C338.549 28.4 335.046 23.4914 327.165 22.9654C319.809 22.4395 314.554 25.9457 312.453 35.9383L287.057 175.133C287.057 175.771 287.01 176.408 286.965 177.02C286.922 177.588 286.882 178.134 286.882 178.64C286.882 186.704 290.385 190.035 297.391 190.035Z" fill="#03093D"/>
</svg>
