<svg width="24" height="24" viewBox="0 0 24 24" fill="none" xmlns="http://www.w3.org/2000/svg">
<path d="M13.5633 4H7.43674L5.77007 6.75H2V17H6V15H4V8.75H6.89659L8.56326 6H12.4367L14.1034 8.75H17V11H19V6.75H15.2299L13.5633 4Z" fill="#2018B0"/>
<path d="M17 19V17H15V15H17V13H19V15H21V17H19V19H17Z" fill="#2018B0"/>
<path fill-rule="evenodd" clip-rule="evenodd" d="M15 12.5C15 14.9853 12.9853 17 10.5 17C8.01472 17 6 14.9853 6 12.5C6 10.0147 8.01472 8 10.5 8C12.9853 8 15 10.0147 15 12.5ZM13 12.5C13 13.8807 11.8807 15 10.5 15C9.11929 15 8 13.8807 8 12.5C8 11.1193 9.11929 10 10.5 10C11.8807 10 13 11.1193 13 12.5Z" fill="#2018B0"/>
</svg>
