<svg width="24" height="24" viewBox="0 0 24 24" fill="none" xmlns="http://www.w3.org/2000/svg">
<path fill-rule="evenodd" clip-rule="evenodd" d="M6.33692 15.762C5.96842 16.039 5.63582 16.3429 5.34479 16.6693C4.97874 17.0799 4.67845 17.5263 4.45522 18C4.16041 18.6256 4 19.2987 4 20H20C20 19.2987 19.8396 18.6256 19.5448 18C19.3216 17.5263 19.0213 17.0799 18.6552 16.6693C18.3625 16.341 18.0278 16.0356 17.6569 15.7574C16.2095 14.6718 14.2096 14 12 14C9.79041 14 7.79053 14.6718 6.34314 15.7574C6.34107 15.7589 6.33899 15.7605 6.33692 15.762ZM12 16C10.5517 16 9.26147 16.3523 8.2559 16.901C7.99904 17.0412 7.76075 17.1942 7.54315 17.3574C7.26928 17.5628 7.03444 17.7782 6.83662 18H17.1634C16.9656 17.7782 16.7307 17.5628 16.4569 17.3574C16.2392 17.1942 16.0009 17.0412 15.7441 16.901C14.7385 16.3523 13.4483 16 12 16ZM16 8C16 10.2091 14.2091 12 12 12C9.79086 12 8 10.2091 8 8C8 5.79086 9.79086 4 12 4C14.2091 4 16 5.79086 16 8ZM12 10C13.1046 10 14 9.10457 14 8C14 6.89543 13.1046 6 12 6C10.8954 6 10 6.89543 10 8C10 9.10457 10.8954 10 12 10Z" fill="#2018B0"/>
</svg>
