<?xml version="1.0" standalone="no"?>
<!DOCTYPE svg PUBLIC "-//W3C//DTD SVG 20010904//EN"
 "http://www.w3.org/TR/2001/REC-SVG-20010904/DTD/svg10.dtd">
<svg version="1.0" xmlns="http://www.w3.org/2000/svg"
 width="1000.000000pt" height="1000.000000pt" viewBox="0 0 1000.000000 1000.000000"
 preserveAspectRatio="xMidYMid meet">

<g transform="translate(0.000000,1000.000000) scale(0.100000,-0.100000)"
fill="#000000" stroke="none">
<path d="M0 5000 l0 -5000 5000 0 5000 0 0 5000 0 5000 -5000 0 -5000 0 0
-5000z m2720 2031 c116 -30 234 -88 296 -148 104 -100 140 -203 131 -373 -8
-130 -27 -211 -79 -320 -33 -69 -56 -100 -122 -165 -94 -92 -162 -136 -278
-176 -122 -42 -249 -59 -435 -59 -160 0 -163 0 -168 -22 -3 -13 -25 -138 -49
-278 -25 -140 -47 -262 -51 -272 -13 -33 -56 -39 -268 -36 -147 2 -210 7 -218
15 -10 10 15 173 125 795 76 431 144 817 153 858 19 95 42 134 94 154 87 35
327 56 594 51 154 -2 206 -7 275 -24z m1845 4 c208 -55 347 -184 406 -375 48
-155 52 -126 -224 -1651 -176 -976 -255 -1393 -277 -1460 -37 -112 -101 -236
-166 -320 -151 -196 -425 -303 -732 -286 -196 12 -315 59 -429 173 -118 116
-166 245 -166 439 1 99 25 242 247 1465 186 1023 253 1377 277 1445 117 341
337 531 677 585 84 13 316 5 387 -15z m1780 -4 c241 -63 386 -197 415 -382 18
-115 -10 -308 -61 -425 -130 -294 -447 -450 -880 -431 l-125 5 -18 -106 c-28
-165 -5 -152 -275 -152 -185 0 -231 3 -240 14 -9 11 14 160 105 673 69 390
125 677 136 705 16 37 29 52 62 67 78 38 323 61 606 56 159 -2 210 -7 275 -24z
m1697 15 c171 -33 285 -97 374 -212 79 -101 121 -253 111 -394 -3 -41 -116
-687 -251 -1436 -176 -976 -254 -1388 -276 -1455 -37 -112 -101 -236 -166
-320 -151 -196 -425 -303 -732 -286 -196 12 -315 59 -429 173 -118 116 -166
245 -166 439 1 100 24 237 246 1455 135 740 256 1377 268 1415 128 416 413
630 846 634 56 1 134 -5 175 -13z m-2462 -1832 c11 -13 -3 -107 -84 -560 -54
-300 -96 -547 -94 -549 2 -2 141 174 308 391 168 218 312 400 322 405 22 12
519 11 537 0 20 -13 22 -11 -356 -479 -184 -227 -336 -419 -339 -426 -3 -8 81
-213 187 -456 151 -347 190 -446 182 -458 -9 -15 -41 -17 -275 -20 -205 -2
-268 1 -275 10 -6 7 -82 199 -169 425 -87 227 -161 408 -162 403 -2 -6 -34
-188 -72 -406 -50 -292 -73 -400 -86 -415 -16 -18 -32 -19 -245 -19 -207 0
-229 2 -237 18 -7 11 50 353 179 1074 103 582 190 1062 194 1068 4 6 92 10
239 10 199 0 235 -2 246 -16z m-3607 -316 c13 -10 33 -96 81 -360 36 -191 67
-352 71 -358 4 -6 12 -7 21 -2 9 5 97 160 197 345 100 185 190 346 200 357 16
20 26 20 270 18 247 -3 252 -3 251 -23 0 -12 -114 -210 -254 -440 -143 -235
-315 -537 -393 -685 l-138 -265 -34 -195 c-27 -152 -39 -199 -55 -215 -19 -19
-35 -20 -230 -23 -228 -3 -250 1 -250 46 0 15 16 118 36 229 l36 203 -46 224
c-35 173 -235 1017 -262 1107 -2 9 3 24 11 33 14 14 48 16 244 16 166 0 232
-3 244 -12z"/>
<path d="M2293 6633 c-65 -3 -73 -6 -78 -26 -6 -27 -65 -382 -65 -392 0 -4 62
-5 138 -3 116 3 145 7 188 26 102 46 154 129 154 247 0 73 -19 104 -77 128
-43 17 -155 25 -260 20z"/>
<path d="M4171 6608 c-60 -13 -141 -94 -165 -163 -25 -75 -516 -2779 -516
-2845 0 -78 25 -145 65 -176 59 -45 196 -50 273 -10 43 22 91 81 125 154 26
56 57 220 273 1440 134 757 244 1399 244 1425 0 104 -71 168 -200 180 -30 3
-75 1 -99 -5z"/>
<path d="M5847 6633 c-3 -5 -19 -90 -37 -188 -17 -99 -33 -193 -36 -209 l-6
-28 143 4 c165 5 208 19 271 84 45 47 64 91 71 164 9 80 -8 119 -63 149 -40
23 -59 25 -191 29 -81 3 -149 0 -152 -5z"/>
<path d="M7701 6608 c-60 -13 -141 -94 -165 -163 -25 -75 -516 -2779 -516
-2845 0 -78 25 -145 65 -176 59 -45 196 -50 273 -10 43 22 91 81 125 154 26
56 57 220 273 1440 134 757 244 1399 244 1425 0 104 -71 168 -200 180 -30 3
-75 1 -99 -5z"/>
</g>
</svg>
