<svg width="19" height="15" viewBox="0 0 19 15" fill="none" xmlns="http://www.w3.org/2000/svg">
<path d="M11.5633 0H5.43674L3.77007 2.75H0V13H4V11H2V4.75H4.89659L6.56326 2H10.4367L12.1034 4.75H15V7H17V2.75H13.2299L11.5633 0Z" fill="#1B6042"/>
<path d="M15 15V13H13V11H15V9H17V11H19V13H17V15H15Z" fill="#1B6042"/>
<path fill-rule="evenodd" clip-rule="evenodd" d="M13 8.5C13 10.9853 10.9853 13 8.5 13C6.01472 13 4 10.9853 4 8.5C4 6.01472 6.01472 4 8.5 4C10.9853 4 13 6.01472 13 8.5ZM11 8.5C11 9.88071 9.88071 11 8.5 11C7.11929 11 6 9.88071 6 8.5C6 7.11929 7.11929 6 8.5 6C9.88071 6 11 7.11929 11 8.5Z" fill="#1B6042"/>
</svg>
