<svg width="24" height="24" viewBox="0 0 24 24" fill="none" xmlns="http://www.w3.org/2000/svg">
<path fill-rule="evenodd" clip-rule="evenodd" d="M9 2C9.55228 2 10 2.44772 10 3V4H13V3C13 2.44772 13.4477 2 14 2C14.5523 2 15 2.44772 15 3V4H16C18.2091 4 20 5.79086 20 8V16C20 18.2091 18.2091 20 16 20H7C4.79086 20 3 18.2091 3 16V8C3 5.79086 4.79086 4 7 4H8V3C8 2.44772 8.44772 2 9 2ZM7 6C5.89543 6 5 6.89543 5 8H18C18 6.89543 17.1046 6 16 6H7ZM5 10V13H8V10H5ZM10 10V13H13V10H10ZM10 15H13V18H10V15ZM15 15V18H16C17.1046 18 18 17.1046 18 16V15H15ZM15 10V13H18V10H15ZM8 15H5V16C5 17.1046 5.89543 18 7 18H8V15Z" fill="#2018B0"/>
</svg>
